<svg width="50" height="50" viewBox="0 0 50 50" fill="none" xmlns="http://www.w3.org/2000/svg">
<path d="M15.2945 21.0093L25.0057 11.3024L34.7209 21.0172L40.3684 15.366L25.0057 0L9.6431 15.362L15.2945 21.0093Z" fill="#F3BA2F"/>
<path d="M0 25.0007L5.6493 19.3516L11.2987 25.0007L5.6493 30.6498L0 25.0007Z" fill="#F3BA2F"/>
<path d="M15.2936 28.9908L25.0048 38.7016L34.72 28.9868L40.3714 34.6301L40.3675 34.634L25.0048 50L9.64221 34.6419L9.63431 34.634L15.2936 28.9908Z" fill="#F3BA2F"/>
<path d="M38.7012 25.002L44.3505 19.3528L49.9999 25.002L44.3505 30.6511L38.7012 25.002Z" fill="#F3BA2F"/>
<path d="M30.7353 24.998L25.0049 19.2639L20.7673 23.5013L20.2776 23.9871L19.2745 24.9901L19.2666 24.998L19.2745 25.0099L25.0049 30.7361L30.7353 25.002L30.7392 24.998H30.7353Z" fill="#F3BA2F"/>
</svg>
