<svg xmlns="http://www.w3.org/2000/svg" viewBox="0 0 106 106" fill="none"><path d="M52.94 105.88C82.178 105.88 105.88 82.178 105.88 52.94C105.88 23.702 82.178 0 52.94 0C23.702 0 0 23.702 0 52.94C0 82.178 23.702 105.88 52.94 105.88Z" fill="white"/><path d="M53 6.99995C78.4009 6.99995 99 27.599 99 52.9999C99 78.4005 78.4009 98.9999 53 98.9999C27.5992 98.9999 7 78.4005 7 52.9999C7 27.599 27.5992 6.99995 53 6.99995ZM92.0822 52.9999C92.0822 31.4191 74.5808 13.9175 53 13.9175C31.4192 13.9175 13.9176 31.4191 13.9176 52.9999C13.9176 74.5807 31.4192 92.0823 53 92.0823C74.5808 92.0823 92.0822 74.5807 92.0822 52.9999Z" fill="#456C91" stroke="#456C91" stroke-width="2"/></svg>