<svg width="228" height="228" viewBox="0 0 228 228" fill="none" xmlns="http://www.w3.org/2000/svg">
<path d="M114 228C176.96 228 228 176.96 228 114C228 51.0395 176.96 0 114 0C51.0395 0 0 51.0395 0 114C0 176.96 51.0395 228 114 228Z" fill="#8247E5"/>
<path d="M151.733 89.61C148.999 88.019 145.444 88.019 142.436 89.61L121.109 101.805L106.617 109.758L85.289 121.954C82.5548 123.544 79.0003 123.544 75.9924 121.954L59.0396 112.41C56.3054 110.819 54.3914 107.903 54.3914 104.721V85.898C54.3914 82.7167 56.032 79.8003 59.0396 78.2096L75.719 68.9304C78.4532 67.3398 82.0079 67.3398 85.016 68.9304L101.695 78.2096C104.429 79.8003 106.343 82.7167 106.343 85.898V98.093L120.835 89.875V77.6793C120.835 74.498 119.195 71.5816 116.187 69.991L85.289 52.4933C82.5548 50.9026 79.0003 50.9026 75.9924 52.4933L44.5478 69.991C41.5399 71.5816 39.8994 74.498 39.8994 77.6793V112.94C39.8994 116.121 41.5399 119.037 44.5478 120.628L75.9924 138.126C78.7269 139.717 82.2814 139.717 85.289 138.126L106.617 126.196L121.109 117.977L142.436 106.047C145.171 104.456 148.725 104.456 151.733 106.047L168.412 115.326C171.147 116.917 173.061 119.833 173.061 123.014V141.837C173.061 145.019 171.42 147.935 168.412 149.526L151.733 159.07C148.999 160.661 145.444 160.661 142.436 159.07L125.757 149.791C123.023 148.2 121.109 145.284 121.109 142.103V129.907L106.617 138.126V150.321C106.617 153.503 108.257 156.419 111.265 158.01L142.71 175.507C145.444 177.098 148.999 177.098 152.006 175.507L183.451 158.01C186.185 156.419 188.099 153.503 188.099 150.321V115.061C188.099 111.879 186.459 108.963 183.451 107.372L151.733 89.61Z" fill="white"/>
</svg>
